<?xml version="1.0" encoding="UTF-8" standalone="no"?><!DOCTYPE svg PUBLIC "-//W3C//DTD SVG 1.1//EN" "http://www.w3.org/Graphics/SVG/1.1/DTD/svg11.dtd"><svg width="100%" height="100%" viewBox="0 0 108 45" version="1.1" xmlns="http://www.w3.org/2000/svg" xmlns:xlink="http://www.w3.org/1999/xlink" xml:space="preserve" xmlns:serif="http://www.serif.com/" style="fill-rule:evenodd;clip-rule:evenodd;stroke-linejoin:round;stroke-miterlimit:1.41421;"><path d="M32.31,11.575c0,-0.5 0,-1 0,-1.5c0,-0.9 -1.4,-0.9 -1.4,0l0,1.5c0,0.9 1.4,0.9 1.4,0Z" style="fill:#fff;fill-rule:nonzero;"/><path d="M32.31,24.475c0,-3.2 0,-6.4 0,-9.6c0,-0.9 -1.4,-0.9 -1.4,0l0,9.6c0,0.9 1.4,0.9 1.4,0Z" style="fill:#fff;fill-rule:nonzero;"/><path d="M0.01,23.175c0,3.7 -0.2,7.4 1.2,10.9c1.9,4.5 5.7,8 10.4,9.3c10.3,3 20.4,-5 20.6,-15.5c0,-0.9 -1.4,-0.9 -1.4,0c-0.2,10.1 -10.4,17.5 -20,13.8c-4.4,-1.7 -7.8,-5.4 -9,-10c-0.7,-2.8 -0.5,-5.7 -0.5,-8.5c0.1,-0.9 -1.3,-0.9 -1.3,0Z" style="fill:#fff;fill-rule:nonzero;"/><path d="M0.01,13.875l0,6.8c0,0.9 1.4,0.9 1.4,0c0,-2.3 0,-4.5 0,-6.8c0,-0.9 -1.4,-0.9 -1.4,0Z" style="fill:#fff;fill-rule:nonzero;"/><path d="M0.01,10.375l0,1.5c0,0.9 1.4,0.9 1.4,0c0,-0.5 0,-1 0,-1.5c0,-0.9 -1.4,-0.9 -1.4,0Z" style="fill:#fff;fill-rule:nonzero;"/><path d="M29.81,8.375c0,-0.4 0,-0.8 0,-1.2c0,-0.4 -0.3,-0.7 -0.7,-0.7c-0.4,0 -0.7,0.3 -0.7,0.7l0,1.2c0,0.4 0.3,0.7 0.7,0.7c0.4,-0.1 0.7,-0.4 0.7,-0.7Z" style="fill:#fff;fill-rule:nonzero;"/><path d="M29.81,17.375c0,-2.1 0,-4.1 0,-6.2c0,-0.9 -1.4,-0.9 -1.4,0l0,6.2c0,0.9 1.4,0.9 1.4,0Z" style="fill:#fff;fill-rule:nonzero;"/><path d="M2.51,20.675c0,3.6 -0.5,7.7 0.6,11.2c1.7,5.8 7.4,9.8 13.4,9.7c5.5,-0.1 10.8,-3.8 12.6,-9.1c1.2,-3.7 0.7,-8 0.7,-11.8c0,-0.9 -1.4,-0.9 -1.4,0c0,2.4 0.1,4.9 0,7.3c-0.2,6.5 -5.1,12.1 -11.9,12.3c-6.7,0.2 -12.3,-5.2 -12.6,-11.9c-0.1,-2.5 0,-5.1 0,-7.6c0,-1 -1.4,-1 -1.4,-0.1Z" style="fill:#fff;fill-rule:nonzero;"/><path d="M2.51,9.975l0,8.1c0,0.9 1.4,0.9 1.4,0c0,-2.7 0,-5.4 0,-8.1c-0.1,-0.9 -1.4,-0.9 -1.4,0Z" style="fill:#fff;fill-rule:nonzero;"/><path d="M2.51,4.875l0,1.7c0,0.9 1.4,0.9 1.4,0c0,-0.6 0,-1.1 0,-1.7c-0.1,-0.9 -1.4,-0.9 -1.4,0Z" style="fill:#fff;fill-rule:nonzero;"/><path d="M27.31,3.975c0,-0.5 0,-1.1 0,-1.6c0,-0.9 -1.4,-0.9 -1.4,0l0,1.6c0,0.9 1.4,0.9 1.4,0Z" style="fill:#fff;fill-rule:nonzero;"/><path d="M27.31,13.675c0,-2.3 0,-4.7 0,-7c0,-0.9 -1.4,-0.9 -1.4,0l0,7c0,0.9 1.4,0.9 1.4,0Z" style="fill:#fff;fill-rule:nonzero;"/><path d="M25.91,15.875l0,1.5c0,0.9 1.4,0.9 1.4,0l0,-1.5c0,-0.9 -1.4,-0.9 -1.4,0Z" style="fill:#fff;fill-rule:nonzero;"/><path d="M25.91,19.275l0,6.8c0,0.9 1.4,0.9 1.4,0l0,-6.8c0,-0.9 -1.4,-0.9 -1.4,0Z" style="fill:#fff;fill-rule:nonzero;"/><path d="M5.01,26.875c0,5.9 3.5,11.2 9.7,12c6.1,0.8 11.7,-3.7 12.5,-9.8c0.1,-0.9 -1.2,-1.2 -1.3,-0.4c-0.7,5.5 -5.8,9.7 -11.4,8.7c-5.3,-0.9 -8.1,-5.5 -8.1,-10.6c0,-0.8 -1.4,-0.8 -1.4,0.1Z" style="fill:#fff;fill-rule:nonzero;"/><path d="M5.01,14.775l0,1.7c0,0.9 1.4,0.9 1.4,0c0,-0.6 0,-1.1 0,-1.7c0,-0.9 -1.4,-0.9 -1.4,0Z" style="fill:#fff;fill-rule:nonzero;"/><path d="M5.01,18.875l0,5.4c0,0.9 1.4,0.9 1.4,0c0,-1.8 0,-3.6 0,-5.4c0,-0.9 -1.4,-0.9 -1.4,0Z" style="fill:#fff;fill-rule:nonzero;"/><path d="M5.01,5.675l0,7.2c0,0.9 1.4,0.9 1.4,0c0,-2.4 0,-4.8 0,-7.2c0,-0.9 -1.4,-0.9 -1.4,0Z" style="fill:#fff;fill-rule:nonzero;"/><path d="M5.01,0.675l0,1.7c0,0.9 1.4,0.9 1.4,0c0,-0.6 0,-1.1 0,-1.7c0,-0.9 -1.4,-0.9 -1.4,0Z" style="fill:#fff;fill-rule:nonzero;"/><path d="M24.71,8.075c0,-0.6 0,-1.2 0,-1.8c0,-0.9 -1.4,-0.9 -1.4,0l0,1.8c0,0.9 1.4,0.9 1.4,0Z" style="fill:#fff;fill-rule:nonzero;"/><path d="M24.71,16.275c0,-1.9 0,-3.8 0,-5.8c0,-0.9 -1.4,-0.9 -1.4,0l0,5.8c0,0.9 1.4,0.9 1.4,0Z" style="fill:#fff;fill-rule:nonzero;"/><path d="M24.61,28.275c0.4,-3.3 0.1,-6.7 0.1,-10c0,-0.9 -1.4,-0.9 -1.4,0c0,3.3 0.3,6.7 -0.1,10c-0.1,0.8 1.3,0.8 1.4,0Z" style="fill:#fff;fill-rule:nonzero;"/><path d="M7.61,22.075c0,4.3 -0.7,9.1 3,12.2c4.4,3.8 11.3,2 13.6,-3.3c0.4,-0.8 -0.8,-1.5 -1.2,-0.7c-2.5,5.7 -10.7,6.4 -13.3,0.4c-1.1,-2.6 -0.6,-6 -0.6,-8.7c-0.2,-0.8 -1.5,-0.8 -1.5,0.1Z" style="fill:#fff;fill-rule:nonzero;"/><path d="M7.61,11.175l0,8.5c0,0.9 1.4,0.9 1.4,0c0,-2.8 0,-5.6 0,-8.5c-0.1,-0.9 -1.4,-0.9 -1.4,0Z" style="fill:#fff;fill-rule:nonzero;"/><path d="M7.61,6.375l0,2c0,0.9 1.4,0.9 1.4,0c0,-0.7 0,-1.3 0,-2c-0.1,-0.9 -1.4,-0.9 -1.4,0Z" style="fill:#fff;fill-rule:nonzero;"/><path d="M22.31,13.375c0,-0.8 0,-1.7 0,-2.5c0,-0.9 -1.4,-0.9 -1.4,0l0,2.5c0,0.9 1.4,0.9 1.4,0Z" style="fill:#fff;fill-rule:nonzero;"/><path d="M22.31,23.275c0,-2.2 0,-4.4 0,-6.6c0,-0.9 -1.4,-0.9 -1.4,0l0,6.6c0,0.9 1.4,0.9 1.4,0Z" style="fill:#fff;fill-rule:nonzero;"/><path d="M10.01,17.575l0,6.6c0,2.4 -0.3,5 1.2,7.1c1.7,2.3 4.8,3.1 7.4,1.9c3.1,-1.4 3.7,-4.2 3.7,-7.3c0,-0.9 -1.4,-0.9 -1.4,0c0,3.1 -1,6.4 -4.8,6.5c-3.1,0 -4.7,-2.6 -4.8,-5.4c-0.1,-3.1 0,-6.3 0,-9.4c0.1,-0.9 -1.3,-0.9 -1.3,0Z" style="fill:#fff;fill-rule:nonzero;"/><path d="M10.01,9.575l0,5.3c0,0.9 1.4,0.9 1.4,0c0,-1.8 0,-3.6 0,-5.3c0,-0.9 -1.4,-0.9 -1.4,0Z" style="fill:#fff;fill-rule:nonzero;"/><path d="M19.71,17.275c0,-0.4 0,-0.9 0,-1.3c0,-0.9 -1.4,-0.9 -1.4,0l0,1.3c0,0.9 1.4,0.9 1.4,0Z" style="fill:#fff;fill-rule:nonzero;"/><path d="M19.71,24.275c0,-1.6 0,-3.2 0,-4.7c0,-0.9 -1.4,-0.9 -1.4,0l0,4.7c0,0.8 1.4,0.8 1.4,0Z" style="fill:#fff;fill-rule:nonzero;"/><path d="M12.61,21.675l0,3.9c0,1.4 -0.1,2.7 0.7,3.9c1.1,1.5 3.1,1.9 4.7,0.8c1.4,-0.9 1.6,-2.5 1.6,-4c0,-0.9 -1.4,-0.9 -1.4,0c0,1.4 -0.3,3.2 -2.1,3.2c-1.6,0 -2.1,-1.5 -2.1,-2.9c0,-1.6 0,-3.3 0,-4.9c0,-0.9 -1.4,-0.9 -1.4,0Z" style="fill:#fff;fill-rule:nonzero;"/><path d="M12.61,16.175l0,2.8c0,0.9 1.4,0.9 1.4,0c0,-0.9 0,-1.9 0,-2.8c0,-0.9 -1.4,-0.9 -1.4,0Z" style="fill:#fff;fill-rule:nonzero;"/><path d="M47.71,29.775c2.4,0 3.8,-1.4 3.8,-3.9l0,-6.5l0.7,0l0,6.5c0,2.9 -1.6,4.5 -4.5,4.5c-2.8,0 -4.5,-1.7 -4.5,-4.5l0,-6.5l0.7,0l0,6.5c0,2.5 1.4,3.9 3.8,3.9Z" style="fill:#fff;fill-rule:nonzero;"/><path d="M69.01,24.875c0,3.1 -2.5,5.5 -5.7,5.5l-4.4,0l0,-11.1l4.4,0c3.2,0.1 5.7,2.5 5.7,5.6Zm-0.7,0c0,-2.7 -2.2,-4.9 -5,-4.9l-3.7,0l0,9.8l3.7,0c2.8,0 5,-2.2 5,-4.9Z" style="fill:#fff;fill-rule:nonzero;"/><path d="M81.41,27.275l-6.5,0l-1.4,3.2l-0.7,0l5,-11.1l0.7,0l5.1,11.1l-0.7,0l-1.5,-3.2Zm-0.3,-0.7l-3,-6.5l-2.9,6.5l5.9,0Z" style="fill:#fff;fill-rule:nonzero;"/><path d="M94.21,19.375l0,0.6l-3.7,0l0,10.4l-0.7,0l0,-10.4l-3.7,0l0,-0.6l8.1,0Z" style="fill:#fff;fill-rule:nonzero;"/><path d="M105.41,27.275l-6.5,0l-1.4,3.2l-0.7,0l5,-11.1l0.7,0l5.1,11.1l-0.7,0l-1.5,-3.2Zm-0.3,-0.7l-3,-6.5l-2.9,6.5l5.9,0Z" style="fill:#fff;fill-rule:nonzero;"/></svg>