<?xml version="1.0" encoding="UTF-8" standalone="no"?><!DOCTYPE svg PUBLIC "-//W3C//DTD SVG 1.1//EN" "http://www.w3.org/Graphics/SVG/1.1/DTD/svg11.dtd"><svg width="100%" height="100%" viewBox="0 0 306 125" version="1.1" xmlns="http://www.w3.org/2000/svg" xmlns:xlink="http://www.w3.org/1999/xlink" xml:space="preserve" xmlns:serif="http://www.serif.com/" style="fill-rule:evenodd;clip-rule:evenodd;stroke-linejoin:round;stroke-miterlimit:1.41421;"><path d="M91.731,32.775c0,-1.4 0,-2.8 0,-4.1c0,-2.5 -3.9,-2.5 -3.9,0l0,4.1c0,2.5 3.9,2.5 3.9,0Z" style="fill:#002e82;fill-rule:nonzero;"/><path d="M91.731,69.675c0,-9.1 0,-18.2 0,-27.3c0,-2.5 -3.9,-2.5 -3.9,0l0,27.3c0,2.5 3.9,2.5 3.9,0Z" style="fill:#005ba3;fill-rule:nonzero;"/><path d="M0.031,65.775c0,10.5 -0.6,21 3.5,31c5.3,12.7 16.3,22.6 29.6,26.4c29.3,8.5 58,-14.1 58.6,-44c0.1,-2.5 -3.9,-2.5 -3.9,0c-0.6,28.8 -29.5,49.6 -56.9,39.2c-12.4,-4.7 -22.1,-15.5 -25.5,-28.3c-2.1,-7.8 -1.4,-16.2 -1.4,-24.2c-0.1,-2.6 -4,-2.6 -4,-0.1Z" style="fill:#76aadb;fill-rule:nonzero;"/><path d="M0.031,39.375l0,19.2c0,2.5 3.9,2.5 3.9,0c0,-6.4 0,-12.8 0,-19.2c0,-2.5 -3.9,-2.5 -3.9,0Z" style="fill:#005ba3;fill-rule:nonzero;"/><path d="M0.031,29.475l0,4.4c0,2.5 3.9,2.5 3.9,0c0,-1.5 0,-2.9 0,-4.4c0,-2.5 -3.9,-2.5 -3.9,0Z" style="fill:#002e82;fill-rule:nonzero;"/><path d="M84.631,23.675c0,-1.1 0,-2.2 0,-3.3c0,-1 -0.9,-2 -2,-2c-1.1,0 -2,0.9 -2,2l0,3.3c0,1 0.9,2 2,2c1.1,-0.1 2,-0.9 2,-2Z" style="fill:#002e82;fill-rule:nonzero;"/><path d="M84.631,49.275c0,-5.8 0,-11.7 0,-17.5c0,-2.5 -3.9,-2.5 -3.9,0l0,17.5c0,2.5 3.9,2.5 3.9,0Z" style="fill:#002e82;fill-rule:nonzero;"/><path d="M7.031,58.575c0,10.2 -1.3,21.8 1.7,31.7c5,16.4 21,28 38.1,27.5c15.6,-0.4 30.8,-10.9 35.7,-26c3.4,-10.5 2,-22.7 2,-33.6c0,-2.5 -3.9,-2.5 -3.9,0c0,6.9 0.3,13.9 0,20.8c-0.7,18.6 -14.6,34.3 -33.8,34.8c-19.1,0.5 -35.1,-14.9 -35.8,-33.7c-0.3,-7.2 -0.1,-14.4 -0.1,-21.6c0.1,-2.4 -3.9,-2.4 -3.9,0.1Z" style="fill:#76aadb;fill-rule:nonzero;"/><path d="M7.031,28.175l0,22.9c0,2.5 3.9,2.5 3.9,0c0,-7.6 0,-15.3 0,-22.9c0,-2.5 -3.9,-2.5 -3.9,0Z" style="fill:#002e82;fill-rule:nonzero;"/><path d="M7.031,13.875l0,4.7c0,2.5 3.9,2.5 3.9,0c0,-1.6 0,-3.1 0,-4.7c0,-2.6 -3.9,-2.6 -3.9,0Z" style="fill:#002e82;fill-rule:nonzero;"/><path d="M77.531,11.375c0,-1.5 0,-3 0,-4.5c0,-2.5 -3.9,-2.5 -3.9,0l0,4.5c0,2.5 3.9,2.5 3.9,0Z" style="fill:#002e82;fill-rule:nonzero;"/><path d="M77.531,38.975c0,-6.6 0,-13.3 0,-19.9c0,-2.5 -3.9,-2.5 -3.9,0l0,19.9c0,2.5 3.9,2.5 3.9,0Z" style="fill:#002e82;fill-rule:nonzero;"/><path d="M73.631,44.975l0,4.4c0,2.5 3.9,2.5 3.9,0l0,-4.4c0,-2.5 -3.9,-2.5 -3.9,0Z" style="fill:#005ba3;fill-rule:nonzero;"/><path d="M73.631,54.875l0,19.3c0,2.5 3.9,2.5 3.9,0l0,-19.3c0,-2.6 -3.9,-2.6 -3.9,0Z" style="fill:#005ba3;fill-rule:nonzero;"/><path d="M14.231,76.375c0,16.7 10,31.9 27.5,34.2c17.3,2.3 33.2,-10.6 35.5,-27.8c0.3,-2.5 -3.4,-3.5 -3.8,-1c-2.1,15.7 -16.5,27.6 -32.5,24.8c-15,-2.6 -22.9,-15.8 -22.9,-30.1c0.1,-2.6 -3.8,-2.6 -3.8,-0.1Z" style="fill:#76aadb;fill-rule:nonzero;"/><path d="M14.231,41.975l0,4.8c0,2.5 3.9,2.5 3.9,0c0,-1.6 0,-3.2 0,-4.8c0.1,-2.5 -3.9,-2.5 -3.9,0Z" style="fill:#005ba3;fill-rule:nonzero;"/><path d="M14.231,53.475l0,15.3c0,2.5 3.9,2.5 3.9,0c0,-5.1 0,-10.2 0,-15.3c0,-2.5 -3.9,-2.5 -3.9,0Z" style="fill:#005ba3;fill-rule:nonzero;"/><path d="M14.231,16.075l0,20.6c0,2.5 3.9,2.5 3.9,0c0,-6.9 0,-13.7 0,-20.6c0.1,-2.6 -3.9,-2.6 -3.9,0Z" style="fill:#002e82;fill-rule:nonzero;"/><path d="M14.331,1.875l0,4.8c0,2.5 3.9,2.5 3.9,0c0,-1.6 0,-3.2 0,-4.8c0,-2.5 -3.9,-2.5 -3.9,0Z" style="fill:#002e82;fill-rule:nonzero;"/><path d="M70.231,22.875c0,-1.7 0,-3.4 0,-5.1c0,-2.5 -3.9,-2.5 -3.9,0l0,5.1c0,2.5 3.9,2.5 3.9,0Z" style="fill:#002e82;fill-rule:nonzero;"/><path d="M70.231,46.175c0,-5.5 0,-10.9 0,-16.4c0,-2.5 -3.9,-2.5 -3.9,0l0,16.4c0,2.5 3.9,2.5 3.9,0Z" style="fill:#002e82;fill-rule:nonzero;"/><path d="M69.931,80.175c1.1,-9.3 0.3,-19 0.3,-28.3c0,-2.5 -3.9,-2.5 -3.9,0c0,9.3 0.8,19 -0.3,28.3c-0.3,2.5 3.6,2.5 3.9,0Z" style="fill:#005ba3;fill-rule:nonzero;"/><path d="M21.531,62.775c0,12.2 -1.9,25.8 8.4,34.8c12.4,10.8 32.1,5.6 38.6,-9.3c1,-2.3 -2.4,-4.3 -3.4,-2c-7,16.1 -30.4,18.1 -37.9,1.2c-3.2,-7.3 -1.8,-16.9 -1.8,-24.7c0,-2.6 -3.9,-2.6 -3.9,0Z" style="fill:#76aadb;fill-rule:nonzero;"/><path d="M21.531,31.675l0,24.1c0,2.5 3.9,2.5 3.9,0c0,-8 0,-16 0,-24.1c0,-2.5 -3.9,-2.5 -3.9,0Z" style="fill:#005ba3;fill-rule:nonzero;"/><path d="M21.531,18.175l0,5.5c0,2.5 3.9,2.5 3.9,0c0,-1.8 0,-3.7 0,-5.5c0,-2.5 -3.9,-2.5 -3.9,0Z" style="fill:#002e82;fill-rule:nonzero;"/><path d="M63.331,37.975c0,-2.4 0,-4.8 0,-7.2c0,-2.5 -3.9,-2.5 -3.9,0l0,7.2c0,2.6 3.9,2.6 3.9,0Z" style="fill:#002e82;fill-rule:nonzero;"/><path d="M63.331,66.175c0,-6.2 0,-12.5 0,-18.7c0,-2.5 -3.9,-2.5 -3.9,0l0,18.7c0,2.5 3.9,2.6 3.9,0Z" style="fill:#005ba3;fill-rule:nonzero;"/><path d="M28.431,49.775l0,18.8c0,6.9 -0.9,14.3 3.5,20.3c4.7,6.4 13.7,8.7 20.9,5.5c8.8,-3.9 10.4,-12.1 10.4,-20.8c0,-2.5 -3.9,-2.5 -3.9,0c0,8.8 -2.8,18.3 -13.5,18.3c-8.9,0.1 -13.3,-7.3 -13.5,-15.3c-0.3,-8.9 0,-17.9 0,-26.8c0.1,-2.5 -3.9,-2.5 -3.9,0Z" style="fill:#76aadb;fill-rule:nonzero;"/><path d="M28.431,27.075l0,15.2c0,2.5 3.9,2.5 3.9,0c0,-5.1 0,-10.1 0,-15.2c0.1,-2.5 -3.9,-2.5 -3.9,0Z" style="fill:#002e82;fill-rule:nonzero;"/><path d="M55.931,49.175c0,-1.3 0,-2.5 0,-3.8c0,-2.5 -3.9,-2.5 -3.9,0l0,3.8c0,2.5 3.9,2.5 3.9,0Z" style="fill:#005ba3;fill-rule:nonzero;"/><path d="M55.931,68.875c0,-4.5 0,-9 0,-13.5c0,-2.5 -3.9,-2.5 -3.9,0l0,13.5c0,2.5 3.9,2.5 3.9,0Z" style="fill:#005ba3;fill-rule:nonzero;"/><path d="M35.831,61.475l0,11c0,3.9 -0.3,7.7 2.1,11c3.1,4.1 8.9,5.3 13.3,2.4c4.1,-2.7 4.6,-7 4.6,-11.5c0,-2.5 -3.9,-2.5 -3.9,0c0,4 -0.8,9.2 -6.1,9.2c-4.7,0 -6,-4.4 -6.1,-8.1c-0.1,-4.7 0,-9.4 0,-14.1c0.1,-2.4 -3.9,-2.4 -3.9,0.1Z" style="fill:#76aadb;fill-rule:nonzero;"/><path d="M35.831,45.975l0,7.9c0,2.5 3.9,2.5 3.9,0c0,-2.6 0,-5.3 0,-7.9c0.1,-2.5 -3.9,-2.5 -3.9,0Z" style="fill:#005ba3;fill-rule:nonzero;"/><path d="M135.631,84.575c6.8,0 10.9,-4.1 10.9,-11.1l0,-18.6l1.9,0l0,18.6c0,8.2 -4.7,12.9 -12.7,12.9c-8.1,0 -12.7,-4.7 -12.7,-12.9l0,-18.6l1.9,0l0,18.6c-0.1,7.1 3.9,11.1 10.7,11.1Z" style="fill:#4a72b2;fill-rule:nonzero;"/><path d="M196.131,70.675c0,8.7 -7.2,15.7 -16.2,15.7l-12.5,0l0,-31.5l12.5,0c9,0.1 16.2,7 16.2,15.8Zm-1.9,0c0,-7.7 -6.3,-13.9 -14.3,-13.9l-10.6,0l0,27.8l10.6,0c7.9,0 14.3,-6.2 14.3,-13.9Z" style="fill:#4a72b2;fill-rule:nonzero;"/><path d="M231.431,77.475l-18.4,0l-4.1,9l-2.1,0l14.3,-31.5l2,0l14.4,31.5l-2.1,0l-4,-9Zm-0.9,-1.9l-8.4,-18.5l-8.3,18.5l16.7,0Z" style="fill:#4a72b2;fill-rule:nonzero;"/><path d="M267.831,54.975l0,1.8l-10.6,0l0,29.6l-1.9,0l0,-29.6l-10.6,0l0,-1.8l23.1,0Z" style="fill:#4a72b2;fill-rule:nonzero;"/><path d="M299.431,77.475l-18.4,0l-4.1,9l-2.1,0l14.3,-31.5l2,0l14.4,31.5l-2.1,0l-4,-9Zm-0.8,-1.9l-8.4,-18.5l-8.3,18.5l16.7,0Z" style="fill:#4a72b2;fill-rule:nonzero;"/></svg>