<?xml version="1.0" standalone="no"?>
<!DOCTYPE svg PUBLIC "-//W3C//DTD SVG 20010904//EN"
 "http://www.w3.org/TR/2001/REC-SVG-20010904/DTD/svg10.dtd">
<svg version="1.0" xmlns="http://www.w3.org/2000/svg"
 width="500.000000pt" height="500.000000pt" viewBox="0 0 500.000000 500.000000"
 preserveAspectRatio="xMidYMid meet">
<metadata>
Created by potrace 1.11, written by Peter Selinger 2001-2013
</metadata>
<g transform="translate(0.000000,500.000000) scale(0.100000,-0.100000)"
fill="#000000" stroke="none">
<path d="M1283 4990 c-36 -15 -43 -43 -43 -174 0 -123 0 -125 26 -145 30 -24
52 -26 87 -10 38 17 47 50 47 169 0 99 -2 111 -22 134 -26 29 -63 39 -95 26z"/>
<path d="M3655 4791 c-44 -18 -50 -38 -50 -163 0 -119 0 -120 28 -144 31 -27
54 -30 92 -12 36 16 48 66 44 181 -3 80 -7 100 -24 116 -24 24 -63 33 -90 22z"/>
<path d="M976 4499 c-26 -20 -26 -22 -26 -150 0 -116 2 -131 20 -149 31 -31
93 -27 119 6 18 23 21 40 21 133 0 129 -5 148 -41 166 -38 20 -62 19 -93 -6z"/>
<path d="M1266 4409 l-26 -20 0 -445 c0 -431 1 -445 20 -464 28 -28 90 -27
116 1 18 20 19 43 19 466 l0 445 -24 19 c-30 25 -72 24 -105 -2z"/>
<path d="M3341 4341 c-27 -27 -34 -74 -29 -191 3 -85 7 -103 25 -121 28 -28
88 -28 117 0 19 20 21 32 21 157 0 131 -1 136 -24 155 -30 25 -85 25 -110 0z"/>
<path d="M1585 4342 c-51 -10 -55 -25 -55 -184 0 -135 2 -150 20 -168 26 -26
80 -26 111 -1 23 19 24 24 24 164 0 126 -2 148 -18 165 -19 21 -50 30 -82 24z"/>
<path d="M3631 4291 c-11 -11 -23 -35 -26 -53 -3 -18 -5 -212 -3 -431 l3 -399
28 -24 c36 -30 68 -30 104 0 l28 24 3 409 c1 224 0 418 -3 431 -14 58 -93 84
-134 43z"/>
<path d="M3915 4235 c-23 -22 -25 -32 -25 -120 0 -88 2 -98 25 -120 15 -16 36
-25 55 -25 19 0 40 9 55 25 23 22 25 32 25 120 0 88 -2 98 -25 120 -15 16 -36
25 -55 25 -19 0 -40 -9 -55 -25z"/>
<path d="M1843 3978 c-41 -20 -44 -47 -41 -387 l3 -323 24 -19 c31 -25 85 -25
111 1 19 19 20 33 20 359 l0 340 -26 20 c-29 23 -57 26 -91 9z"/>
<path d="M994 3936 c-17 -8 -34 -21 -38 -31 -3 -9 -6 -232 -6 -494 0 -469 0
-479 21 -505 29 -37 89 -37 118 0 21 26 21 36 21 505 l0 478 -22 25 c-30 32
-56 38 -94 22z"/>
<path d="M4211 3916 c-35 -19 -40 -37 -40 -154 -1 -96 1 -104 24 -127 32 -33
83 -34 113 -2 20 21 22 34 22 134 0 91 -3 115 -17 132 -23 27 -71 35 -102 17z"/>
<path d="M692 3867 c-20 -21 -22 -34 -22 -136 0 -62 4 -121 10 -131 14 -27 64
-41 100 -28 17 5 35 18 40 28 6 10 10 68 10 128 0 95 -3 113 -21 136 -27 35
-86 36 -117 3z"/>
<path d="M3341 3861 c-11 -11 -23 -35 -26 -53 -3 -18 -5 -180 -3 -360 3 -323
3 -328 25 -350 30 -30 86 -30 116 0 22 22 22 24 22 383 l0 361 -24 19 c-30 25
-85 25 -110 0z"/>
<path d="M3066 3819 l-26 -20 0 -179 0 -179 26 -20 c36 -29 79 -27 110 4 l25
25 -3 176 c-3 171 -4 176 -27 195 -30 25 -72 24 -105 -2z"/>
<path d="M1580 3803 c-8 -3 -23 -12 -32 -21 -17 -14 -18 -52 -18 -533 l0 -518
26 -20 c44 -34 103 -21 124 28 7 18 10 180 8 523 -3 482 -4 498 -23 517 -22
22 -62 33 -85 24z"/>
<path d="M3911 3774 c-20 -26 -21 -37 -21 -401 l0 -374 25 -24 c15 -16 36 -25
55 -25 19 0 40 9 55 25 l25 24 0 376 0 376 -25 24 c-34 35 -86 34 -114 -1z"/>
<path d="M695 3475 l-25 -24 0 -414 c0 -402 1 -414 20 -435 31 -33 92 -30 119
4 20 26 21 37 21 436 l0 409 -25 24 c-15 16 -36 25 -55 25 -19 0 -40 -9 -55
-25z"/>
<path d="M1290 3393 c-46 -18 -50 -30 -50 -170 0 -120 2 -135 20 -153 26 -26
80 -26 111 -1 23 18 24 27 27 144 3 118 2 125 -20 150 -24 27 -62 40 -88 30z"/>
<path d="M4195 3355 l-25 -24 0 -569 c0 -561 0 -570 21 -596 26 -33 88 -37
119 -6 20 20 20 33 20 599 l0 580 -26 20 c-36 28 -79 27 -109 -4z"/>
<path d="M3629 3251 c-23 -18 -24 -25 -24 -141 0 -116 1 -123 24 -141 32 -26
92 -25 117 2 16 18 19 37 19 139 0 102 -3 121 -19 139 -25 27 -85 28 -117 2z"/>
<path d="M2784 3248 c-34 -16 -44 -51 -44 -148 0 -79 3 -92 24 -116 31 -37 90
-39 117 -5 16 20 19 41 19 131 0 105 -1 109 -26 129 -29 23 -57 26 -90 9z"/>
<path d="M2143 3230 c-38 -16 -43 -41 -43 -234 0 -173 1 -187 20 -206 33 -33
85 -30 118 6 21 24 22 33 22 199 0 192 -6 218 -53 235 -35 12 -35 12 -64 0z"/>
<path d="M3083 3170 c-12 -5 -26 -18 -32 -29 -7 -13 -11 -156 -11 -419 0 -376
1 -401 19 -423 27 -34 86 -32 117 5 l24 27 0 394 0 394 -22 25 c-26 29 -63 39
-95 26z"/>
<path d="M1829 3061 l-24 -19 0 -624 c0 -611 0 -625 22 -710 71 -276 244 -451
514 -520 108 -27 269 -22 369 12 313 106 463 339 486 754 6 115 5 122 -16 149
-17 21 -30 27 -61 27 -65 0 -73 -16 -87 -177 -26 -301 -120 -486 -292 -571
-84 -42 -156 -55 -275 -50 -119 6 -190 30 -270 91 -99 76 -165 181 -207 333
-21 76 -22 102 -27 687 -6 587 -7 609 -25 623 -28 20 -80 17 -107 -5z"/>
<path d="M3344 2977 l-27 -23 1 -195 c1 -107 5 -275 8 -374 4 -110 1 -256 -7
-375 -16 -252 -16 -260 6 -276 29 -21 80 -17 110 9 43 37 50 135 47 686 -1
304 -6 497 -12 516 -18 55 -81 71 -126 32z"/>
<path d="M1290 2933 c-8 -3 -23 -12 -32 -21 -17 -14 -18 -44 -18 -358 l0 -343
26 -20 c37 -29 70 -26 105 8 l29 29 0 326 c0 323 0 325 -22 350 -24 26 -62 39
-88 29z"/>
<path d="M3637 2868 c-9 -7 -21 -26 -27 -41 -13 -37 -14 -759 0 -808 22 -80
135 -77 155 3 3 13 4 202 3 421 l-3 399 -24 19 c-27 22 -79 25 -104 7z"/>
<path d="M2764 2835 l-25 -25 3 -301 3 -301 24 -19 c32 -26 82 -25 109 4 22
23 22 29 22 325 0 297 0 302 -22 322 -31 28 -83 26 -114 -5z"/>
<path d="M3914 2719 c-18 -20 -19 -48 -24 -523 -6 -466 -8 -508 -28 -602 -31
-144 -65 -242 -129 -372 -191 -391 -528 -655 -953 -748 -121 -27 -429 -27
-550 0 -423 92 -779 371 -973 761 -56 113 -89 211 -118 345 -22 99 -23 135
-29 608 l-5 504 -24 19 c-32 26 -77 24 -105 -4 -23 -23 -24 -27 -31 -323 -16
-611 11 -857 121 -1132 114 -281 345 -553 617 -725 97 -62 214 -117 336 -157
195 -65 260 -75 486 -75 173 0 214 3 304 23 592 133 1049 563 1190 1120 53
210 68 459 56 946 -7 306 -8 310 -31 333 -30 30 -84 31 -110 2z"/>
<path d="M2143 2610 c-12 -5 -26 -18 -32 -29 -15 -27 -15 -682 0 -753 28 -133
100 -228 217 -285 73 -36 80 -38 176 -38 88 0 108 3 158 27 67 31 140 96 174
153 57 98 88 351 47 387 -44 38 -110 29 -132 -18 -6 -14 -11 -49 -11 -78 0
-136 -51 -252 -129 -293 -33 -17 -61 -23 -108 -23 -77 0 -127 23 -172 77 -62
75 -65 93 -68 468 -2 187 -6 350 -8 362 -5 22 -51 54 -77 52 -7 0 -23 -4 -35
-9z"/>
<path d="M1575 2561 c-50 -21 -50 -21 -50 -385 0 -355 7 -443 46 -593 107
-408 434 -682 849 -709 212 -14 458 54 636 176 65 45 178 154 230 221 61 80
124 198 124 235 0 59 -64 108 -110 84 -11 -6 -34 -39 -51 -73 -105 -208 -283
-362 -507 -437 -85 -29 -113 -34 -232 -38 -114 -3 -149 -1 -224 17 -229 55
-419 213 -521 435 -77 166 -100 367 -85 752 9 240 6 278 -22 301 -20 17 -60
23 -83 14z"/>
<path d="M708 2434 c-15 -8 -31 -26 -34 -39 -13 -51 3 -716 20 -822 52 -339
161 -599 357 -853 425 -550 1137 -820 1794 -681 572 122 1051 500 1304 1031
87 184 137 351 166 553 22 151 20 242 -5 267 -28 28 -84 27 -114 -3 -20 -20
-24 -37 -29 -128 -48 -778 -641 -1439 -1408 -1570 -107 -18 -150 -21 -319 -16
-204 5 -309 23 -470 77 -557 187 -991 677 -1104 1245 -29 146 -36 257 -36 577
0 174 -3 324 -6 333 -7 17 -55 45 -76 45 -7 -1 -25 -7 -40 -16z"/>
<path d="M1261 2003 c-24 -16 -24 -17 -18 -157 16 -358 151 -679 387 -916 374
-377 941 -465 1425 -222 122 61 217 131 331 246 114 115 190 219 250 343 74
153 135 383 115 435 -19 50 -85 74 -124 45 -12 -8 -25 -47 -37 -110 -153 -745
-917 -1144 -1575 -822 -257 125 -438 337 -543 637 -41 114 -62 226 -71 375 -6
98 -11 126 -26 143 -23 25 -81 27 -114 3z"/>
</g>
</svg>
